<svg xmlns="http://www.w3.org/2000/svg" xmlns:xlink="http://www.w3.org/1999/xlink" aria-hidden="true" role="img" class="iconify iconify--bi" width="1em" height="1em" preserveAspectRatio="xMidYMid meet" viewBox="0 0 16 16"><g fill="currentColor" fill-rule="evenodd"><path d="m8 3.293l6 6V13.5a1.5 1.5 0 0 1-1.5 1.5h-9A1.5 1.5 0 0 1 2 13.5V9.293l6-6zm5-.793V6l-2-2V2.5a.5.5 0 0 1 .5-.5h1a.5.5 0 0 1 .5.5z"></path><path d="M7.293 1.5a1 1 0 0 1 1.414 0l6.647 6.646a.5.5 0 0 1-.708.708L8 2.207L1.354 8.854a.5.5 0 1 1-.708-.708L7.293 1.5z"></path></g></svg>